<svg width="16" height="18" viewBox="0 0 16 18" fill="none" xmlns="http://www.w3.org/2000/svg">
<path fill-rule="evenodd" clip-rule="evenodd" d="M3.62973 6.21875H0.200195V17.2494H3.62973V6.21875ZM3.85821 2.80571C3.83595 1.72416 3.11346 0.900391 1.94023 0.900391C0.767012 0.900391 0 1.72416 0 2.80571C0 3.86486 0.744342 4.71235 1.89572 4.71235H1.91763C3.11346 4.71235 3.85821 3.86486 3.85821 2.80571ZM16.0001 10.924C16.0001 7.53588 14.3082 5.95898 12.0515 5.95898C10.2306 5.95898 9.41537 7.02962 8.96019 7.7807V6.2183H5.53024C5.57545 7.25336 5.53024 17.249 5.53024 17.249H8.96019V11.0885C8.96019 10.7589 8.98245 10.43 9.07313 10.194C9.32099 9.53535 9.88534 8.85346 10.8328 8.85346C12.0743 8.85346 12.5706 9.86495 12.5706 11.3473V17.2487H16L16.0001 10.924Z" fill="#686868"/>
</svg>
